<svg width="41" height="41" viewBox="0 0 41 41" fill="none" xmlns="http://www.w3.org/2000/svg">
<path d="M20.5 28.8333C22.3333 28.8333 23.8333 27.3333 23.8333 25.5C23.8333 23.6667 22.3333 22.1667 20.5 22.1667C18.6667 22.1667 17.1667 23.6667 17.1667 25.5C17.1667 27.3333 18.6667 28.8333 20.5 28.8333ZM30.5 13.8333H28.8333V10.5C28.8333 5.89999 25.1 2.16666 20.5 2.16666C15.9 2.16666 12.1667 5.89999 12.1667 10.5H15.3333C15.3333 7.64999 17.65 5.33332 20.5 5.33332C23.35 5.33332 25.6667 7.64999 25.6667 10.5V13.8333H10.5C8.66667 13.8333 7.16667 15.3333 7.16667 17.1667V33.8333C7.16667 35.6667 8.66667 37.1667 10.5 37.1667H30.5C32.3333 37.1667 33.8333 35.6667 33.8333 33.8333V17.1667C33.8333 15.3333 32.3333 13.8333 30.5 13.8333ZM30.5 33.8333H10.5V17.1667H30.5V33.8333Z" fill="white"/>
</svg>
