<svg width="18" height="29" viewBox="0 0 18 29" fill="none" xmlns="http://www.w3.org/2000/svg">
<g clip-path="url(#clip0_10_61)">
<path d="M17.0215 4.83104C17.3861 5.08169 17.5456 5.43488 17.5 5.89061L15.3125 20.1094C15.2441 20.4512 15.0618 20.7132 14.7656 20.8955C14.4466 21.055 14.1276 21.0664 13.8086 20.9297L9.70703 19.2549L7.38281 21.7842C7.01823 22.126 6.60807 22.2171 6.15234 22.0576C5.7194 21.8525 5.49154 21.5107 5.46875 21.0322V18.1611C5.46875 18.0244 5.51432 17.9105 5.60547 17.8193L11.3477 11.5644C11.5299 11.3138 11.5186 11.0631 11.3135 10.8125C11.0856 10.6074 10.835 10.596 10.5615 10.7783L3.62305 16.9648L0.615234 15.4609C0.227865 15.2558 0.0227865 14.9368 0 14.5039C0 14.0709 0.182292 13.7405 0.546875 13.5127L15.8594 4.76268C16.2695 4.5576 16.6569 4.58039 17.0215 4.83104Z" fill="#5164BF"/>
</g>
<defs>
<clipPath id="clip0_10_61">
<rect width="17.5" height="17.5" fill="white" transform="translate(0 4.25)"/>
</clipPath>
</defs>
</svg>
