<svg width="16" height="28" viewBox="0 0 16 28" fill="none" xmlns="http://www.w3.org/2000/svg">
<g clip-path="url(#clip0_4_41)">
<path d="M8.02881 9.19775C8.50049 9.21826 8.85938 9.42334 9.10547 9.81299L15.75 21.1333C15.9551 21.5435 15.9551 21.9536 15.75 22.3638C15.5039 22.7534 15.145 22.9585 14.6733 22.979H1.38428C0.912598 22.9585 0.553711 22.7534 0.307617 22.3638C0.102539 21.9536 0.102539 21.5435 0.307617 21.1333L6.98291 9.81299C7.229 9.42334 7.57764 9.21826 8.02881 9.19775ZM8.02881 13.1353C7.57764 13.1763 7.33154 13.4224 7.29053 13.8735V17.3188C7.33154 17.77 7.57764 18.0161 8.02881 18.0571C8.47998 18.0161 8.72607 17.77 8.76709 17.3188V13.8735C8.72607 13.4224 8.47998 13.1763 8.02881 13.1353ZM9.01318 20.0259C9.01318 19.7388 8.9209 19.5029 8.73633 19.3184C8.55176 19.1338 8.31592 19.0415 8.02881 19.0415C7.7417 19.0415 7.50586 19.1338 7.32129 19.3184C7.13672 19.5029 7.04443 19.7388 7.04443 20.0259C7.04443 20.313 7.13672 20.5488 7.32129 20.7334C7.50586 20.918 7.7417 21.0103 8.02881 21.0103C8.31592 21.0103 8.55176 20.918 8.73633 20.7334C8.9209 20.5488 9.01318 20.313 9.01318 20.0259Z" fill="#CA8A04"/>
</g>
<defs>
<clipPath id="clip0_4_41">
<rect width="15.75" height="15.75" fill="white" transform="translate(0 7.875)"/>
</clipPath>
</defs>
</svg>
