<svg width="18" height="29" viewBox="0 0 18 29" fill="none" xmlns="http://www.w3.org/2000/svg">
<g clip-path="url(#clip0_10_69)">
<path d="M4.63574 5.71973C4.11165 5.71973 3.66732 5.87923 3.30273 6.19824C2.91536 6.49447 2.65332 6.89323 2.5166 7.39453L0.568359 15.1533C0.522786 15.3356 0.5 15.5179 0.5 15.7002V18.8447C0.522786 19.46 0.739258 19.9727 1.14941 20.3828C1.55957 20.793 2.07227 21.0094 2.6875 21.0322H15.8125C16.4277 21.0094 16.9404 20.793 17.3506 20.3828C17.7607 19.9727 17.9772 19.46 18 18.8447V15.7002C18 15.5179 17.9772 15.3356 17.9316 15.1533L15.9834 7.39453C15.8467 6.89323 15.5846 6.49447 15.1973 6.19824C14.8327 5.87923 14.3883 5.71973 13.8643 5.71973H4.63574ZM4.63574 7.90723H13.8643L15.5049 14.4697H13.7617C13.306 14.4925 12.9756 14.6976 12.7705 15.085L12.292 16.042C12.0869 16.4294 11.7565 16.6344 11.3008 16.6572H7.19922C6.76628 16.6344 6.43587 16.4294 6.20801 16.042L5.72949 15.085C5.52441 14.6976 5.19401 14.4925 4.73828 14.4697H2.99512L4.63574 7.90723Z" fill="#4B5563"/>
</g>
<defs>
<clipPath id="clip0_10_69">
<rect width="17.5" height="17.5" fill="white" transform="translate(0.5 4.25)"/>
</clipPath>
</defs>
</svg>
