<svg width="25" height="25" viewBox="0 0 25 25" fill="none" xmlns="http://www.w3.org/2000/svg">
<path d="M13.75 3.49998C13.75 3.30107 13.829 3.1103 13.9697 2.96965C14.1103 2.829 14.3011 2.74998 14.5 2.74998C16.5554 2.74998 18.5267 3.56649 19.9801 5.0199C21.4335 6.47331 22.25 8.44455 22.25 10.5C22.25 10.6989 22.171 10.8897 22.0303 11.0303C21.8897 11.171 21.6989 11.25 21.5 11.25C21.3011 11.25 21.1103 11.171 20.9697 11.0303C20.829 10.8897 20.75 10.6989 20.75 10.5C20.75 8.84238 20.0915 7.25266 18.9194 6.08056C17.7473 4.90846 16.1576 4.24998 14.5 4.24998C14.3011 4.24998 14.1103 4.17096 13.9697 4.03031C13.829 3.88966 13.75 3.69889 13.75 3.49998ZM13.75 7.49998C13.75 7.30107 13.829 7.1103 13.9697 6.96965C14.1103 6.829 14.3011 6.74998 14.5 6.74998C15.4945 6.74998 16.4484 7.14507 17.1516 7.84833C17.8549 8.55159 18.25 9.50542 18.25 10.5C18.25 10.6989 18.171 10.8897 18.0303 11.0303C17.8897 11.171 17.6989 11.25 17.5 11.25C17.3011 11.25 17.1103 11.171 16.9697 11.0303C16.829 10.8897 16.75 10.6989 16.75 10.5C16.75 9.90324 16.5129 9.33095 16.091 8.90899C15.669 8.48703 15.0967 8.24998 14.5 8.24998C14.3011 8.24998 14.1103 8.17096 13.9697 8.03031C13.829 7.88966 13.75 7.69889 13.75 7.49998ZM9.50399 3.91598C8.93199 3.10598 8.13999 2.74098 7.29999 2.74998C6.50299 2.75798 5.72699 3.09898 5.07899 3.55298C4.41804 4.0183 3.85447 4.60837 3.41999 5.28998C3.00999 5.93898 2.71399 6.70598 2.75399 7.45498C2.94699 11.058 4.97399 14.908 7.82099 17.757C10.666 20.603 14.465 22.581 18.301 22.203C19.053 22.129 19.764 21.746 20.345 21.258C20.9459 20.749 21.4369 20.1229 21.788 19.418C22.128 18.726 22.331 17.928 22.219 17.151C22.103 16.341 21.65 15.617 20.817 15.137C20.6444 15.0368 20.4737 14.9335 20.305 14.827C20.155 14.734 19.995 14.633 19.801 14.517C19.4047 14.2727 18.9866 14.0658 18.552 13.899C18.105 13.736 17.594 13.629 17.062 13.702C16.511 13.778 15.999 14.038 15.556 14.504C15.215 14.864 14.713 14.976 14.007 14.772C13.289 14.564 12.481 14.048 11.779 13.35C11.077 12.654 10.546 11.84 10.319 11.105C10.095 10.377 10.194 9.84198 10.544 9.47298C11.017 8.97498 11.269 8.42098 11.322 7.83498C11.374 7.26498 11.232 6.72898 11.029 6.26098C10.725 5.56198 10.209 4.86698 9.80499 4.32498C9.70341 4.18947 9.6034 4.0528 9.50499 3.91498" fill="white"/>
</svg>
